<?xml version="1.0" encoding="utf-8"?>
<!-- Generator: Adobe Illustrator 27.2.0, SVG Export Plug-In . SVG Version: 6.00 Build 0)  -->
<svg version="1.1" id="Layer_1" xmlns="http://www.w3.org/2000/svg" xmlns:xlink="http://www.w3.org/1999/xlink" x="0px" y="0px"
	 viewBox="0 0 612 792" style="enable-background:new 0 0 612 792;" xml:space="preserve">
<path d="M509.9,389.3h-18v-4.2H508c0.9,0,1.9-0.3,1.9-1.3c0-1.1-1-1.3-1.9-1.3h-10.9c-3.1,0-5.6-2.5-5.6-5.6s2.4-5.6,5.6-5.6h18.2
	v4.2H499c-0.8,0-1.5,0.3-1.5,1.2c0,0.9,0.8,1.2,1.5,1.2h10.9c3.3,0,6,2.3,6,5.7S513.2,389.3,509.9,389.3L509.9,389.3z M473.2,389.3
	c-5.2,0-9.7-3.6-9.7-9c0-5.5,4.4-9,9.7-9H488v4.3h-13.1c-2.9,0-5.3,1.6-5.3,4.7c0,3.1,2.5,4.7,5.3,4.7H488v4.3H473.2z M454.3,389.3
	h6v-18.1h-6V389.3z M444.7,389.3v-13.7h-0.2l-7.7,13.7H431l-7.6-13.7h-0.2v13.7h-5.7v-18.1h9.5l6.9,12.7h0.1l6.8-12.7h9.4v18.1
	H444.7z M399.4,374.5h-0.2l-4.4,7.1h9.1L399.4,374.5z M408.5,389.3l-2.2-3.4h-14.1l-2.1,3.4h-6.8l11.9-18.1h8.8l11.8,18.1H408.5z
	 M374.7,389.3l-11.8-12.6h-0.1v12.6h-5.7l0-18.1h8.3l10.9,11.8h0.1v-11.8h5.5v18.1H374.7z M343.5,383v6.3h-6v-6.3l-11.7-11.8h7.7
	l7.3,7.2l7.3-7.2h7.2L343.5,383z M315.5,375.6H306v9.4h9.5c2.9,0,5.3-1.6,5.3-4.7C320.8,377.2,318.3,375.6,315.5,375.6L315.5,375.6z
	 M317.2,389.3H300v-18.1h17.2c5.3,0,9.7,3.5,9.7,9C326.9,385.7,322.5,389.3,317.2,389.3L317.2,389.3z M264.1,389.3v-18.1h6V385h14.7
	v4.3H264.1z M245.9,374.5h-0.2l-4.4,7.1h9.1L245.9,374.5z M255,389.3l-2.2-3.4h-14.1l-2.1,3.4h-6.8l11.9-18.1h8.8l11.8,18.1H255z
	 M219.9,375.3h-9.8v4.3h9.8c1.4,0,2.7-0.6,2.7-2.1C222.6,375.9,221.3,375.3,219.9,375.3L219.9,375.3z M223.8,383.1
	c1.6,2.1,3.1,4.1,4.7,6.2h-6.8l-4.1-5.7h-7.5v5.7h-6v-18.1h17c4,0,7.7,1.8,7.7,6.3C228.8,380.7,226.7,382.4,223.8,383.1L223.8,383.1
	z M179.6,389.3v-18.1h20.8v4.3h-14.8v2.5h14.8v4h-14.8v2.9h14.8v4.3H179.6z M168.6,389.3l-12.2-14.1h-0.1v14.1h-5.7v-18.1h9.3
	l10.1,11.8h0.1v-11.8h5.5v18.1H168.6z M126.2,389.3v-18.1H147v4.3h-14.9v2.5H147v4h-14.9v2.9H147v4.3H126.2z M105.8,389.3
	c-5.3,0-9.7-3.6-9.7-9c0-5.5,4.4-9,9.7-9h16.4v4.3h-14.7c-2.9,0-5.3,1.6-5.3,4.7c0,3.1,2.5,4.7,5.3,4.7h8.7V382h-6.5v-4h12.4v11.2
	H105.8z M362.9,402.4l4.5,11.1l4.4-11.1h1.7l-7.3,18.3h-1.8l2-5.1l-5.5-13.3H362.9z M353,403.5c-2.9,0-4.1,2.9-4.1,5.3
	s1.2,5.4,4.1,5.4c3,0,4.2-2.8,4.2-5.4C357.3,406.2,355.9,403.5,353,403.5z M357.4,402.4h1.6c-0.1,0.9-0.1,2-0.1,3v8
	c0,2.6,0.1,5.4-2.8,6.8c-1.1,0.5-1.8,0.6-3,0.6c-2.4,0-5.2-0.8-5.2-3.6h1.7c0.2,1.6,2.1,2.1,3.7,2.1c2.1,0,4-1.5,4-3.7v-2.5h-0.1
	c-0.8,1.6-2.6,2.5-4.3,2.5c-4,0-5.7-3-5.7-6.7c0-3.6,1.6-6.9,5.7-6.9c1.9,0,3.3,0.9,4.4,2.5l0.1-0.1L357.4,402.4z M338.7,403.5
	c-3.2,0-4.5,3.1-4.5,5.6s1.3,5.6,4.5,5.6c3.2,0,4.5-3.1,4.5-5.6S341.9,403.5,338.7,403.5z M344.9,409c0,3.5-2,7-6.2,7
	c-4.2,0-6.2-3.5-6.2-7c0-3.5,2-7,6.2-7C342.9,402,344.9,405.6,344.9,409z M327.6,415.7h1.6v-19.1h-1.6V415.7z M318.1,403.5
	c-3.2,0-4.5,3.1-4.5,5.6s1.3,5.6,4.5,5.6s4.5-3.1,4.5-5.6S321.3,403.5,318.1,403.5z M324.3,409c0,3.5-2,7-6.2,7
	c-4.2,0-6.2-3.5-6.2-7c0-3.5,2-7,6.2-7C322.4,402,324.3,405.6,324.3,409z M299.8,415.7h-1.6v-10.3c0-1-0.1-2.1-0.1-3h1.6l0.1,2
	l0.1,0.1c0.9-1.6,2.4-2.4,4.1-2.4c4.3,0,4.7,3.8,4.7,5.4v8.3h-1.6v-8.6c0-2.3-1.3-3.6-3.5-3.6c-2.6,0-3.8,2.2-3.8,4.6L299.8,415.7
	L299.8,415.7z M285.1,404.4L285.1,404.4c1-1.6,2.5-2.4,4.2-2.4c4.3,0,4.7,3.8,4.7,5.4v8.3h-1.6v-8.6c0-2.3-1.3-3.6-3.5-3.6
	c-2.6,0-3.8,2.2-3.8,4.6v7.6h-1.6v-19.1h1.6L285.1,404.4L285.1,404.4z M278.6,406.5c-0.1-2-1.4-3-3.6-3c-2.4,0-3.9,2.5-3.9,5.6
	c0,3,1.5,5.6,3.9,5.6c2.1,0,3.5-1.3,3.6-3.1h1.7c-0.4,3-2.2,4.5-5.2,4.5c-4,0-5.8-3.4-5.8-7c0-3.6,2-7,5.9-7c2.7,0,4.9,1.6,5.1,4.5
	H278.6L278.6,406.5z M265,408c-0.2-2.6-1.6-4.5-4.3-4.5c-2.6,0-4,2.2-4.2,4.5H265z M256.5,409.4c0.1,2.8,1.4,5.2,4.6,5.2
	c1.9,0,3.4-1.4,3.8-3.2h1.7c-0.8,3.2-2.8,4.6-6,4.6c-4,0-5.8-3.4-5.8-7c0-3.6,2-7,5.9-7c4.4,0,6.1,3.2,6.1,7.4H256.5L256.5,409.4z
	 M245.3,398.2h-6.2v-1.6h13.9v1.6H247l0,17.5h-1.7L245.3,398.2z M220.4,415.7h-1.6v-10.3c0-1-0.1-2.1-0.1-3h1.6l0.1,2l0.1,0.1
	c0.9-1.6,2.4-2.4,4.1-2.4c4.3,0,4.7,3.8,4.7,5.4v8.3h-1.6v-8.6c0-2.3-1.3-3.6-3.5-3.6c-2.6,0-3.8,2.2-3.8,4.6V415.7z M209.3,403.5
	c-3.2,0-4.5,3.1-4.5,5.6s1.3,5.6,4.5,5.6c3.2,0,4.5-3.1,4.5-5.6C213.8,406.6,212.5,403.5,209.3,403.5z M215.5,409c0,3.5-2,7-6.2,7
	c-4.2,0-6.2-3.5-6.2-7c0-3.5,2-7,6.2-7C213.6,402,215.5,405.6,215.5,409z M198.3,415.7h1.6v-13.3h-1.6V415.7z M198.1,398.6h1.9v-2
	h-1.9V398.6z M190.6,403.8h-2.6v-1.5h2.6v-2.8l1.6-0.7v3.5h3v1.5h-3v8.9c0,1.2,0.6,1.9,1.8,1.9c0.5,0,1,0,1.4-0.2v1.4
	c-0.5,0.1-1.1,0.2-1.6,0.2c-3.4,0-3.2-2.1-3.2-3.9L190.6,403.8L190.6,403.8z M179.8,414.6c3.5,0,4.1-2.9,4-5.6c-2.2,0.1-7-0.4-7,3
	C176.8,413.8,178.2,414.6,179.8,414.6z M183.7,406.3c-0.2-2.2-1.3-2.9-3.1-2.9c-1.7,0-3,0.5-3.2,2.3h-1.7c0.4-2.7,2.4-3.8,5-3.8
	c2.9,0,4.7,1.4,4.7,4.4v6.3c0,1,0.1,2.1,0.1,3h-1.6l-0.1-2h-0.1l-0.1,0.2c-0.6,1.1-2.4,2.2-4.1,2.2c-2.5,0-4.4-1.5-4.4-4.1
	c0-1.8,1.1-3.2,2.7-3.8c1.8-0.8,4.1-0.5,6-0.6L183.7,406.3L183.7,406.3z M154.3,404.4L154.3,404.4c1-1.6,2.5-2.4,4.2-2.4
	c2.1,0,3.7,1.2,4.3,2.9c1-1.6,2.5-2.9,4.6-2.9c4.3,0,4.7,3.8,4.7,5.4v8.3h-1.6v-8.6c0-2.3-1.3-3.6-3.5-3.6c-2.6,0-3.8,2.2-3.8,4.6
	v7.6h-1.6v-8.6c0-2.3-1.3-3.6-3.5-3.6c-2.6,0-3.8,2.2-3.8,4.6v7.6h-1.6v-10.3c0-1-0.1-2.1-0.1-3h1.6L154.3,404.4z M145.5,415.7h-1.6
	v-10.3c0-1-0.1-2.1-0.1-3h1.6l0.1,2h0.1c0.5-1.4,1.7-2.3,3-2.4c0.5,0,1.1,0,1.6,0v1.5c-0.3,0-0.7-0.1-1-0.1c-2.4,0-3.6,1.7-3.6,4.2
	V415.7z M134.4,403.5c-3.2,0-4.5,3.1-4.5,5.6s1.3,5.6,4.5,5.6s4.5-3.1,4.5-5.6S137.7,403.5,134.4,403.5z M140.6,409c0,3.5-2,7-6.2,7
	c-4.2,0-6.2-3.5-6.2-7c0-3.5,2-7,6.2-7C138.7,402,140.6,405.6,140.6,409z M121.6,415.7v-11.8h-2.7v-1.5h2.7v-2.8
	c0-2.3,0.9-3.3,3.2-3.3c0.5,0,1,0.2,1.5,0.3v1.3c-0.3-0.1-0.7-0.1-1-0.1c-2.2,0-2.2,1.1-2.1,3v1.7h3v1.5h-3v11.8H121.6z
	 M107.3,415.7h-1.6v-10.3c0-1-0.1-2.1-0.1-3h1.6l0.1,2l0.1,0.1c0.9-1.6,2.4-2.4,4.1-2.4c4.3,0,4.7,3.8,4.7,5.4v8.3h-1.6v-8.6
	c0-2.3-1.3-3.6-3.5-3.6c-2.6,0-3.8,2.2-3.8,4.6L107.3,415.7L107.3,415.7z M99.1,415.7h1.7v-19.2h-1.7
	C99.1,396.5,99.1,415.7,99.1,415.7z"/>
</svg>
